<?xml version="1.0" encoding="utf-8" standalone="no"?>
<!DOCTYPE svg PUBLIC "-//W3C//DTD SVG 1.1//EN"
  "http://www.w3.org/Graphics/SVG/1.1/DTD/svg11.dtd">
<svg xmlns:xlink="http://www.w3.org/1999/xlink" width="795.72pt" height="723.584125pt" viewBox="0 0 795.72 723.584125" xmlns="http://www.w3.org/2000/svg" version="1.1">
 <metadata>
  <rdf:RDF xmlns:dc="http://purl.org/dc/elements/1.1/" xmlns:cc="http://creativecommons.org/ns#" xmlns:rdf="http://www.w3.org/1999/02/22-rdf-syntax-ns#">
   <cc:Work>
    <dc:type rdf:resource="http://purl.org/dc/dcmitype/StillImage"/>
    <dc:date>2024-07-23T09:12:14.619944</dc:date>
    <dc:format>image/svg+xml</dc:format>
    <dc:creator>
     <cc:Agent>
      <dc:title>Matplotlib v3.8.4, https://matplotlib.org/</dc:title>
     </cc:Agent>
    </dc:creator>
   </cc:Work>
  </rdf:RDF>
 </metadata>
 <defs>
  <style type="text/css">*{stroke-linejoin: round; stroke-linecap: butt}</style>
 </defs>
 <g id="figure_1">
  <g id="patch_1">
   <path d="M 0 723.584125 
L 795.72 723.584125 
L 795.72 0 
L 0 0 
z
" style="fill: #ffffff"/>
  </g>
  <g id="axes_1">
   <g id="patch_2">
    <path d="M 118.92 322.474466 
L 376.458462 322.474466 
L 376.458462 25.965375 
L 118.92 25.965375 
z
" style="fill: #ffffff"/>
   </g>
   <g id="patch_3">
    <path d="M 211.946654 308.99678 
L 364.752168 308.99678 
L 364.752168 252.248629 
L 211.946654 252.248629 
z
" clip-path="url(#pd998182f6b)" style="fill: #2171b5"/>
   </g>
   <g id="patch_4">
    <path d="M 211.946654 238.061591 
L 274.311511 238.061591 
L 274.311511 181.313439 
L 211.946654 181.313439 
z
" clip-path="url(#pd998182f6b)" style="fill: #6caed6"/>
   </g>
   <g id="patch_5">
    <path d="M 211.946654 167.126402 
L 301.646317 167.126402 
L 301.646317 110.37825 
L 211.946654 110.37825 
z
" clip-path="url(#pd998182f6b)" style="fill: #6caed6"/>
   </g>
   <g id="patch_6">
    <path d="M 211.946654 96.191212 
L 206.731524 96.191212 
L 206.731524 39.443061 
L 211.946654 39.443061 
z
" clip-path="url(#pd998182f6b)" style="fill: #6caed6"/>
   </g>
   <g id="matplotlib.axis_1">
    <g id="xtick_1">
     <g id="line2d_1">
      <defs>
       <path id="mef5fc6d051" d="M 0 0 
L 0 3.5 
" style="stroke: #000000; stroke-width: 0.8"/>
      </defs>
      <g>
       <use xlink:href="#mef5fc6d051" x="153.669441" y="322.474466" style="stroke: #000000; stroke-width: 0.8"/>
      </g>
     </g>
    </g>
    <g id="xtick_2">
     <g id="line2d_2">
      <g>
       <use xlink:href="#mef5fc6d051" x="211.946654" y="322.474466" style="stroke: #000000; stroke-width: 0.8"/>
      </g>
     </g>
    </g>
    <g id="xtick_3">
     <g id="line2d_3">
      <g>
       <use xlink:href="#mef5fc6d051" x="270.223867" y="322.474466" style="stroke: #000000; stroke-width: 0.8"/>
      </g>
     </g>
    </g>
    <g id="xtick_4">
     <g id="line2d_4">
      <g>
       <use xlink:href="#mef5fc6d051" x="328.501079" y="322.474466" style="stroke: #000000; stroke-width: 0.8"/>
      </g>
     </g>
    </g>
   </g>
   <g id="matplotlib.axis_2">
    <g id="ytick_1">
     <g id="line2d_5"/>
     <g id="text_1">
      <!-- All minus FTT-P -->
      <g transform="translate(9.722188 285.941611) scale(0.14 -0.14)">
       <defs>
        <path id="DejaVuSans-41" d="M 2188 4044 
L 1331 1722 
L 3047 1722 
L 2188 4044 
z
M 1831 4666 
L 2547 4666 
L 4325 0 
L 3669 0 
L 3244 1197 
L 1141 1197 
L 716 0 
L 50 0 
L 1831 4666 
z
" transform="scale(0.015625)"/>
        <path id="DejaVuSans-6c" d="M 603 4863 
L 1178 4863 
L 1178 0 
L 603 0 
L 603 4863 
z
" transform="scale(0.015625)"/>
        <path id="DejaVuSans-20" transform="scale(0.015625)"/>
        <path id="DejaVuSans-6d" d="M 3328 2828 
Q 3544 3216 3844 3400 
Q 4144 3584 4550 3584 
Q 5097 3584 5394 3201 
Q 5691 2819 5691 2113 
L 5691 0 
L 5113 0 
L 5113 2094 
Q 5113 2597 4934 2840 
Q 4756 3084 4391 3084 
Q 3944 3084 3684 2787 
Q 3425 2491 3425 1978 
L 3425 0 
L 2847 0 
L 2847 2094 
Q 2847 2600 2669 2842 
Q 2491 3084 2119 3084 
Q 1678 3084 1418 2786 
Q 1159 2488 1159 1978 
L 1159 0 
L 581 0 
L 581 3500 
L 1159 3500 
L 1159 2956 
Q 1356 3278 1631 3431 
Q 1906 3584 2284 3584 
Q 2666 3584 2933 3390 
Q 3200 3197 3328 2828 
z
" transform="scale(0.015625)"/>
        <path id="DejaVuSans-69" d="M 603 3500 
L 1178 3500 
L 1178 0 
L 603 0 
L 603 3500 
z
M 603 4863 
L 1178 4863 
L 1178 4134 
L 603 4134 
L 603 4863 
z
" transform="scale(0.015625)"/>
        <path id="DejaVuSans-6e" d="M 3513 2113 
L 3513 0 
L 2938 0 
L 2938 2094 
Q 2938 2591 2744 2837 
Q 2550 3084 2163 3084 
Q 1697 3084 1428 2787 
Q 1159 2491 1159 1978 
L 1159 0 
L 581 0 
L 581 3500 
L 1159 3500 
L 1159 2956 
Q 1366 3272 1645 3428 
Q 1925 3584 2291 3584 
Q 2894 3584 3203 3211 
Q 3513 2838 3513 2113 
z
" transform="scale(0.015625)"/>
        <path id="DejaVuSans-75" d="M 544 1381 
L 544 3500 
L 1119 3500 
L 1119 1403 
Q 1119 906 1312 657 
Q 1506 409 1894 409 
Q 2359 409 2629 706 
Q 2900 1003 2900 1516 
L 2900 3500 
L 3475 3500 
L 3475 0 
L 2900 0 
L 2900 538 
Q 2691 219 2414 64 
Q 2138 -91 1772 -91 
Q 1169 -91 856 284 
Q 544 659 544 1381 
z
M 1991 3584 
L 1991 3584 
z
" transform="scale(0.015625)"/>
        <path id="DejaVuSans-73" d="M 2834 3397 
L 2834 2853 
Q 2591 2978 2328 3040 
Q 2066 3103 1784 3103 
Q 1356 3103 1142 2972 
Q 928 2841 928 2578 
Q 928 2378 1081 2264 
Q 1234 2150 1697 2047 
L 1894 2003 
Q 2506 1872 2764 1633 
Q 3022 1394 3022 966 
Q 3022 478 2636 193 
Q 2250 -91 1575 -91 
Q 1294 -91 989 -36 
Q 684 19 347 128 
L 347 722 
Q 666 556 975 473 
Q 1284 391 1588 391 
Q 1994 391 2212 530 
Q 2431 669 2431 922 
Q 2431 1156 2273 1281 
Q 2116 1406 1581 1522 
L 1381 1569 
Q 847 1681 609 1914 
Q 372 2147 372 2553 
Q 372 3047 722 3315 
Q 1072 3584 1716 3584 
Q 2034 3584 2315 3537 
Q 2597 3491 2834 3397 
z
" transform="scale(0.015625)"/>
        <path id="DejaVuSans-46" d="M 628 4666 
L 3309 4666 
L 3309 4134 
L 1259 4134 
L 1259 2759 
L 3109 2759 
L 3109 2228 
L 1259 2228 
L 1259 0 
L 628 0 
L 628 4666 
z
" transform="scale(0.015625)"/>
        <path id="DejaVuSans-54" d="M -19 4666 
L 3928 4666 
L 3928 4134 
L 2272 4134 
L 2272 0 
L 1638 0 
L 1638 4134 
L -19 4134 
L -19 4666 
z
" transform="scale(0.015625)"/>
        <path id="DejaVuSans-2d" d="M 313 2009 
L 1997 2009 
L 1997 1497 
L 313 1497 
L 313 2009 
z
" transform="scale(0.015625)"/>
        <path id="DejaVuSans-50" d="M 1259 4147 
L 1259 2394 
L 2053 2394 
Q 2494 2394 2734 2622 
Q 2975 2850 2975 3272 
Q 2975 3691 2734 3919 
Q 2494 4147 2053 4147 
L 1259 4147 
z
M 628 4666 
L 2053 4666 
Q 2838 4666 3239 4311 
Q 3641 3956 3641 3272 
Q 3641 2581 3239 2228 
Q 2838 1875 2053 1875 
L 1259 1875 
L 1259 0 
L 628 0 
L 628 4666 
z
" transform="scale(0.015625)"/>
       </defs>
       <use xlink:href="#DejaVuSans-41"/>
       <use xlink:href="#DejaVuSans-6c" x="68.408203"/>
       <use xlink:href="#DejaVuSans-6c" x="96.191406"/>
       <use xlink:href="#DejaVuSans-20" x="123.974609"/>
       <use xlink:href="#DejaVuSans-6d" x="155.761719"/>
       <use xlink:href="#DejaVuSans-69" x="253.173828"/>
       <use xlink:href="#DejaVuSans-6e" x="280.957031"/>
       <use xlink:href="#DejaVuSans-75" x="344.335938"/>
       <use xlink:href="#DejaVuSans-73" x="407.714844"/>
       <use xlink:href="#DejaVuSans-20" x="459.814453"/>
       <use xlink:href="#DejaVuSans-46" x="491.601562"/>
       <use xlink:href="#DejaVuSans-54" x="547.371094"/>
       <use xlink:href="#DejaVuSans-54" x="606.705078"/>
       <use xlink:href="#DejaVuSans-2d" x="658.664062"/>
       <use xlink:href="#DejaVuSans-50" x="694.748047"/>
      </g>
     </g>
    </g>
    <g id="ytick_2">
     <g id="line2d_6"/>
     <g id="text_2">
      <!-- FTT-Fr -->
      <g transform="translate(74.19 215.006421) scale(0.14 -0.14)">
       <defs>
        <path id="DejaVuSans-72" d="M 2631 2963 
Q 2534 3019 2420 3045 
Q 2306 3072 2169 3072 
Q 1681 3072 1420 2755 
Q 1159 2438 1159 1844 
L 1159 0 
L 581 0 
L 581 3500 
L 1159 3500 
L 1159 2956 
Q 1341 3275 1631 3429 
Q 1922 3584 2338 3584 
Q 2397 3584 2469 3576 
Q 2541 3569 2628 3553 
L 2631 2963 
z
" transform="scale(0.015625)"/>
       </defs>
       <use xlink:href="#DejaVuSans-46"/>
       <use xlink:href="#DejaVuSans-54" x="55.769531"/>
       <use xlink:href="#DejaVuSans-54" x="115.103516"/>
       <use xlink:href="#DejaVuSans-2d" x="167.0625"/>
       <use xlink:href="#DejaVuSans-46" x="203.146484"/>
       <use xlink:href="#DejaVuSans-72" x="253.416016"/>
      </g>
     </g>
    </g>
    <g id="ytick_3">
     <g id="line2d_7"/>
     <g id="text_3">
      <!-- FTT-Tr -->
      <g transform="translate(76.01875 144.071232) scale(0.14 -0.14)">
       <use xlink:href="#DejaVuSans-46"/>
       <use xlink:href="#DejaVuSans-54" x="55.769531"/>
       <use xlink:href="#DejaVuSans-54" x="115.103516"/>
       <use xlink:href="#DejaVuSans-2d" x="167.0625"/>
       <use xlink:href="#DejaVuSans-54" x="194.021484"/>
       <use xlink:href="#DejaVuSans-72" x="240.355469"/>
      </g>
     </g>
    </g>
    <g id="ytick_4">
     <g id="line2d_8"/>
     <g id="text_4">
      <!-- FTT-H -->
      <g transform="translate(76.454063 73.136043) scale(0.14 -0.14)">
       <defs>
        <path id="DejaVuSans-48" d="M 628 4666 
L 1259 4666 
L 1259 2753 
L 3553 2753 
L 3553 4666 
L 4184 4666 
L 4184 0 
L 3553 0 
L 3553 2222 
L 1259 2222 
L 1259 0 
L 628 0 
L 628 4666 
z
" transform="scale(0.015625)"/>
       </defs>
       <use xlink:href="#DejaVuSans-46"/>
       <use xlink:href="#DejaVuSans-54" x="55.769531"/>
       <use xlink:href="#DejaVuSans-54" x="115.103516"/>
       <use xlink:href="#DejaVuSans-2d" x="167.0625"/>
       <use xlink:href="#DejaVuSans-48" x="203.146484"/>
      </g>
     </g>
    </g>
   </g>
   <g id="line2d_9">
    <path d="M 211.946654 322.474466 
L 211.946654 25.965375 
" clip-path="url(#pd998182f6b)" style="fill: none; stroke: #000000; stroke-width: 0.8; stroke-linecap: square"/>
   </g>
   <g id="patch_7">
    <path d="M 118.92 322.474466 
L 376.458462 322.474466 
" style="fill: none; stroke: #000000; stroke-width: 0.8; stroke-linejoin: miter; stroke-linecap: square"/>
   </g>
   <g id="text_5">
    <!-- FTT:P -->
    <g transform="translate(225.920106 19.965375) scale(0.168 -0.168)">
     <defs>
      <path id="DejaVuSans-3a" d="M 750 794 
L 1409 794 
L 1409 0 
L 750 0 
L 750 794 
z
M 750 3309 
L 1409 3309 
L 1409 2516 
L 750 2516 
L 750 3309 
z
" transform="scale(0.015625)"/>
     </defs>
     <use xlink:href="#DejaVuSans-46"/>
     <use xlink:href="#DejaVuSans-54" x="55.769531"/>
     <use xlink:href="#DejaVuSans-54" x="115.103516"/>
     <use xlink:href="#DejaVuSans-3a" x="165.1875"/>
     <use xlink:href="#DejaVuSans-50" x="198.878906"/>
    </g>
   </g>
  </g>
  <g id="axes_2">
   <g id="patch_8">
    <path d="M 530.981538 322.474466 
L 788.52 322.474466 
L 788.52 25.965375 
L 530.981538 25.965375 
z
" style="fill: #ffffff"/>
   </g>
   <g id="patch_9">
    <path d="M 624.008192 308.99678 
L 545.131102 308.99678 
L 545.131102 252.248629 
L 624.008192 252.248629 
z
" clip-path="url(#pbab41b9ef2)" style="fill: #2171b5"/>
   </g>
   <g id="patch_10">
    <path d="M 624.008192 238.061591 
L 542.757549 238.061591 
L 542.757549 181.313439 
L 624.008192 181.313439 
z
" clip-path="url(#pbab41b9ef2)" style="fill: #6caed6"/>
   </g>
   <g id="patch_11">
    <path d="M 624.008192 167.126402 
L 542.687832 167.126402 
L 542.687832 110.37825 
L 624.008192 110.37825 
z
" clip-path="url(#pbab41b9ef2)" style="fill: #6caed6"/>
   </g>
   <g id="patch_12">
    <path d="M 624.008192 96.191212 
L 603.492961 96.191212 
L 603.492961 39.443061 
L 624.008192 39.443061 
z
" clip-path="url(#pbab41b9ef2)" style="fill: #6caed6"/>
   </g>
   <g id="matplotlib.axis_3">
    <g id="xtick_5">
     <g id="line2d_10">
      <g>
       <use xlink:href="#mef5fc6d051" x="565.73098" y="322.474466" style="stroke: #000000; stroke-width: 0.8"/>
      </g>
     </g>
    </g>
    <g id="xtick_6">
     <g id="line2d_11">
      <g>
       <use xlink:href="#mef5fc6d051" x="624.008192" y="322.474466" style="stroke: #000000; stroke-width: 0.8"/>
      </g>
     </g>
    </g>
    <g id="xtick_7">
     <g id="line2d_12">
      <g>
       <use xlink:href="#mef5fc6d051" x="682.285405" y="322.474466" style="stroke: #000000; stroke-width: 0.8"/>
      </g>
     </g>
    </g>
    <g id="xtick_8">
     <g id="line2d_13">
      <g>
       <use xlink:href="#mef5fc6d051" x="740.562618" y="322.474466" style="stroke: #000000; stroke-width: 0.8"/>
      </g>
     </g>
    </g>
   </g>
   <g id="matplotlib.axis_4">
    <g id="ytick_5">
     <g id="line2d_14"/>
     <g id="text_6">
      <!-- All minus FTT-H -->
      <g transform="translate(419.696851 285.941611) scale(0.14 -0.14)">
       <use xlink:href="#DejaVuSans-41"/>
       <use xlink:href="#DejaVuSans-6c" x="68.408203"/>
       <use xlink:href="#DejaVuSans-6c" x="96.191406"/>
       <use xlink:href="#DejaVuSans-20" x="123.974609"/>
       <use xlink:href="#DejaVuSans-6d" x="155.761719"/>
       <use xlink:href="#DejaVuSans-69" x="253.173828"/>
       <use xlink:href="#DejaVuSans-6e" x="280.957031"/>
       <use xlink:href="#DejaVuSans-75" x="344.335938"/>
       <use xlink:href="#DejaVuSans-73" x="407.714844"/>
       <use xlink:href="#DejaVuSans-20" x="459.814453"/>
       <use xlink:href="#DejaVuSans-46" x="491.601562"/>
       <use xlink:href="#DejaVuSans-54" x="547.371094"/>
       <use xlink:href="#DejaVuSans-54" x="606.705078"/>
       <use xlink:href="#DejaVuSans-2d" x="658.664062"/>
       <use xlink:href="#DejaVuSans-48" x="694.748047"/>
      </g>
     </g>
    </g>
    <g id="ytick_6">
     <g id="line2d_15"/>
     <g id="text_7">
      <!-- FTT-Fr -->
      <g transform="translate(486.251538 215.006421) scale(0.14 -0.14)">
       <use xlink:href="#DejaVuSans-46"/>
       <use xlink:href="#DejaVuSans-54" x="55.769531"/>
       <use xlink:href="#DejaVuSans-54" x="115.103516"/>
       <use xlink:href="#DejaVuSans-2d" x="167.0625"/>
       <use xlink:href="#DejaVuSans-46" x="203.146484"/>
       <use xlink:href="#DejaVuSans-72" x="253.416016"/>
      </g>
     </g>
    </g>
    <g id="ytick_7">
     <g id="line2d_16"/>
     <g id="text_8">
      <!-- FTT-Tr -->
      <g transform="translate(488.080288 144.071232) scale(0.14 -0.14)">
       <use xlink:href="#DejaVuSans-46"/>
       <use xlink:href="#DejaVuSans-54" x="55.769531"/>
       <use xlink:href="#DejaVuSans-54" x="115.103516"/>
       <use xlink:href="#DejaVuSans-2d" x="167.0625"/>
       <use xlink:href="#DejaVuSans-54" x="194.021484"/>
       <use xlink:href="#DejaVuSans-72" x="240.355469"/>
      </g>
     </g>
    </g>
    <g id="ytick_8">
     <g id="line2d_17"/>
     <g id="text_9">
      <!-- FTT-P -->
      <g transform="translate(490.602476 73.136043) scale(0.14 -0.14)">
       <use xlink:href="#DejaVuSans-46"/>
       <use xlink:href="#DejaVuSans-54" x="55.769531"/>
       <use xlink:href="#DejaVuSans-54" x="115.103516"/>
       <use xlink:href="#DejaVuSans-2d" x="167.0625"/>
       <use xlink:href="#DejaVuSans-50" x="203.146484"/>
      </g>
     </g>
    </g>
   </g>
   <g id="line2d_18">
    <path d="M 624.008192 322.474466 
L 624.008192 25.965375 
" clip-path="url(#pbab41b9ef2)" style="fill: none; stroke: #000000; stroke-width: 0.8; stroke-linecap: square"/>
   </g>
   <g id="patch_13">
    <path d="M 530.981538 322.474466 
L 788.52 322.474466 
" style="fill: none; stroke: #000000; stroke-width: 0.8; stroke-linejoin: miter; stroke-linecap: square"/>
   </g>
   <g id="text_10">
    <!-- FTT:H -->
    <g transform="translate(636.729519 19.965375) scale(0.168 -0.168)">
     <use xlink:href="#DejaVuSans-46"/>
     <use xlink:href="#DejaVuSans-54" x="55.769531"/>
     <use xlink:href="#DejaVuSans-54" x="115.103516"/>
     <use xlink:href="#DejaVuSans-3a" x="165.1875"/>
     <use xlink:href="#DejaVuSans-48" x="198.878906"/>
    </g>
   </g>
  </g>
  <g id="axes_3">
   <g id="patch_14">
    <path d="M 118.92 678.285375 
L 376.458462 678.285375 
L 376.458462 381.776284 
L 118.92 381.776284 
z
" style="fill: #ffffff"/>
   </g>
   <g id="patch_15">
    <path d="M 211.946654 664.807689 
L 207.330374 664.807689 
L 207.330374 608.059538 
L 211.946654 608.059538 
z
" clip-path="url(#p5e6d0d0706)" style="fill: #2171b5"/>
   </g>
   <g id="patch_16">
    <path d="M 211.946654 593.8725 
L 207.120505 593.8725 
L 207.120505 537.124348 
L 211.946654 537.124348 
z
" clip-path="url(#p5e6d0d0706)" style="fill: #6caed6"/>
   </g>
   <g id="patch_17">
    <path d="M 211.946654 522.937311 
L 207.125894 522.937311 
L 207.125894 466.189159 
L 211.946654 466.189159 
z
" clip-path="url(#p5e6d0d0706)" style="fill: #6caed6"/>
   </g>
   <g id="patch_18">
    <path d="M 211.946654 452.002121 
L 211.195919 452.002121 
L 211.195919 395.25397 
L 211.946654 395.25397 
z
" clip-path="url(#p5e6d0d0706)" style="fill: #6caed6"/>
   </g>
   <g id="matplotlib.axis_5">
    <g id="xtick_9">
     <g id="line2d_19">
      <g>
       <use xlink:href="#mef5fc6d051" x="153.669441" y="678.285375" style="stroke: #000000; stroke-width: 0.8"/>
      </g>
     </g>
     <g id="text_11">
      <!-- −200 -->
      <g transform="translate(134.44241 695.923187) scale(0.14 -0.14)">
       <defs>
        <path id="DejaVuSans-2212" d="M 678 2272 
L 4684 2272 
L 4684 1741 
L 678 1741 
L 678 2272 
z
" transform="scale(0.015625)"/>
        <path id="DejaVuSans-32" d="M 1228 531 
L 3431 531 
L 3431 0 
L 469 0 
L 469 531 
Q 828 903 1448 1529 
Q 2069 2156 2228 2338 
Q 2531 2678 2651 2914 
Q 2772 3150 2772 3378 
Q 2772 3750 2511 3984 
Q 2250 4219 1831 4219 
Q 1534 4219 1204 4116 
Q 875 4013 500 3803 
L 500 4441 
Q 881 4594 1212 4672 
Q 1544 4750 1819 4750 
Q 2544 4750 2975 4387 
Q 3406 4025 3406 3419 
Q 3406 3131 3298 2873 
Q 3191 2616 2906 2266 
Q 2828 2175 2409 1742 
Q 1991 1309 1228 531 
z
" transform="scale(0.015625)"/>
        <path id="DejaVuSans-30" d="M 2034 4250 
Q 1547 4250 1301 3770 
Q 1056 3291 1056 2328 
Q 1056 1369 1301 889 
Q 1547 409 2034 409 
Q 2525 409 2770 889 
Q 3016 1369 3016 2328 
Q 3016 3291 2770 3770 
Q 2525 4250 2034 4250 
z
M 2034 4750 
Q 2819 4750 3233 4129 
Q 3647 3509 3647 2328 
Q 3647 1150 3233 529 
Q 2819 -91 2034 -91 
Q 1250 -91 836 529 
Q 422 1150 422 2328 
Q 422 3509 836 4129 
Q 1250 4750 2034 4750 
z
" transform="scale(0.015625)"/>
       </defs>
       <use xlink:href="#DejaVuSans-2212"/>
       <use xlink:href="#DejaVuSans-32" x="83.789062"/>
       <use xlink:href="#DejaVuSans-30" x="147.412109"/>
       <use xlink:href="#DejaVuSans-30" x="211.035156"/>
      </g>
     </g>
    </g>
    <g id="xtick_10">
     <g id="line2d_20">
      <g>
       <use xlink:href="#mef5fc6d051" x="211.946654" y="678.285375" style="stroke: #000000; stroke-width: 0.8"/>
      </g>
     </g>
     <g id="text_12">
      <!-- 0 -->
      <g transform="translate(207.492904 695.923187) scale(0.14 -0.14)">
       <use xlink:href="#DejaVuSans-30"/>
      </g>
     </g>
    </g>
    <g id="xtick_11">
     <g id="line2d_21">
      <g>
       <use xlink:href="#mef5fc6d051" x="270.223867" y="678.285375" style="stroke: #000000; stroke-width: 0.8"/>
      </g>
     </g>
     <g id="text_13">
      <!-- 200 -->
      <g transform="translate(256.862617 695.923187) scale(0.14 -0.14)">
       <use xlink:href="#DejaVuSans-32"/>
       <use xlink:href="#DejaVuSans-30" x="63.623047"/>
       <use xlink:href="#DejaVuSans-30" x="127.246094"/>
      </g>
     </g>
    </g>
    <g id="xtick_12">
     <g id="line2d_22">
      <g>
       <use xlink:href="#mef5fc6d051" x="328.501079" y="678.285375" style="stroke: #000000; stroke-width: 0.8"/>
      </g>
     </g>
     <g id="text_14">
      <!-- 400 -->
      <g transform="translate(315.139829 695.923187) scale(0.14 -0.14)">
       <defs>
        <path id="DejaVuSans-34" d="M 2419 4116 
L 825 1625 
L 2419 1625 
L 2419 4116 
z
M 2253 4666 
L 3047 4666 
L 3047 1625 
L 3713 1625 
L 3713 1100 
L 3047 1100 
L 3047 0 
L 2419 0 
L 2419 1100 
L 313 1100 
L 313 1709 
L 2253 4666 
z
" transform="scale(0.015625)"/>
       </defs>
       <use xlink:href="#DejaVuSans-34"/>
       <use xlink:href="#DejaVuSans-30" x="63.623047"/>
       <use xlink:href="#DejaVuSans-30" x="127.246094"/>
      </g>
     </g>
    </g>
    <g id="text_15">
     <!-- MtCO$_2$ emission -->
     <g transform="translate(191.829231 713.472562) scale(0.14 -0.14)">
      <defs>
       <path id="DejaVuSans-4d" d="M 628 4666 
L 1569 4666 
L 2759 1491 
L 3956 4666 
L 4897 4666 
L 4897 0 
L 4281 0 
L 4281 4097 
L 3078 897 
L 2444 897 
L 1241 4097 
L 1241 0 
L 628 0 
L 628 4666 
z
" transform="scale(0.015625)"/>
       <path id="DejaVuSans-74" d="M 1172 4494 
L 1172 3500 
L 2356 3500 
L 2356 3053 
L 1172 3053 
L 1172 1153 
Q 1172 725 1289 603 
Q 1406 481 1766 481 
L 2356 481 
L 2356 0 
L 1766 0 
Q 1100 0 847 248 
Q 594 497 594 1153 
L 594 3053 
L 172 3053 
L 172 3500 
L 594 3500 
L 594 4494 
L 1172 4494 
z
" transform="scale(0.015625)"/>
       <path id="DejaVuSans-43" d="M 4122 4306 
L 4122 3641 
Q 3803 3938 3442 4084 
Q 3081 4231 2675 4231 
Q 1875 4231 1450 3742 
Q 1025 3253 1025 2328 
Q 1025 1406 1450 917 
Q 1875 428 2675 428 
Q 3081 428 3442 575 
Q 3803 722 4122 1019 
L 4122 359 
Q 3791 134 3420 21 
Q 3050 -91 2638 -91 
Q 1578 -91 968 557 
Q 359 1206 359 2328 
Q 359 3453 968 4101 
Q 1578 4750 2638 4750 
Q 3056 4750 3426 4639 
Q 3797 4528 4122 4306 
z
" transform="scale(0.015625)"/>
       <path id="DejaVuSans-4f" d="M 2522 4238 
Q 1834 4238 1429 3725 
Q 1025 3213 1025 2328 
Q 1025 1447 1429 934 
Q 1834 422 2522 422 
Q 3209 422 3611 934 
Q 4013 1447 4013 2328 
Q 4013 3213 3611 3725 
Q 3209 4238 2522 4238 
z
M 2522 4750 
Q 3503 4750 4090 4092 
Q 4678 3434 4678 2328 
Q 4678 1225 4090 567 
Q 3503 -91 2522 -91 
Q 1538 -91 948 565 
Q 359 1222 359 2328 
Q 359 3434 948 4092 
Q 1538 4750 2522 4750 
z
" transform="scale(0.015625)"/>
       <path id="DejaVuSans-65" d="M 3597 1894 
L 3597 1613 
L 953 1613 
Q 991 1019 1311 708 
Q 1631 397 2203 397 
Q 2534 397 2845 478 
Q 3156 559 3463 722 
L 3463 178 
Q 3153 47 2828 -22 
Q 2503 -91 2169 -91 
Q 1331 -91 842 396 
Q 353 884 353 1716 
Q 353 2575 817 3079 
Q 1281 3584 2069 3584 
Q 2775 3584 3186 3129 
Q 3597 2675 3597 1894 
z
M 3022 2063 
Q 3016 2534 2758 2815 
Q 2500 3097 2075 3097 
Q 1594 3097 1305 2825 
Q 1016 2553 972 2059 
L 3022 2063 
z
" transform="scale(0.015625)"/>
       <path id="DejaVuSans-6f" d="M 1959 3097 
Q 1497 3097 1228 2736 
Q 959 2375 959 1747 
Q 959 1119 1226 758 
Q 1494 397 1959 397 
Q 2419 397 2687 759 
Q 2956 1122 2956 1747 
Q 2956 2369 2687 2733 
Q 2419 3097 1959 3097 
z
M 1959 3584 
Q 2709 3584 3137 3096 
Q 3566 2609 3566 1747 
Q 3566 888 3137 398 
Q 2709 -91 1959 -91 
Q 1206 -91 779 398 
Q 353 888 353 1747 
Q 353 2609 779 3096 
Q 1206 3584 1959 3584 
z
" transform="scale(0.015625)"/>
      </defs>
      <use xlink:href="#DejaVuSans-4d" transform="translate(0 0.015625)"/>
      <use xlink:href="#DejaVuSans-74" transform="translate(86.279297 0.015625)"/>
      <use xlink:href="#DejaVuSans-43" transform="translate(125.488281 0.015625)"/>
      <use xlink:href="#DejaVuSans-4f" transform="translate(195.3125 0.015625)"/>
      <use xlink:href="#DejaVuSans-32" transform="translate(274.980469 -16.390625) scale(0.7)"/>
      <use xlink:href="#DejaVuSans-20" transform="translate(322.250977 0.015625)"/>
      <use xlink:href="#DejaVuSans-65" transform="translate(354.038086 0.015625)"/>
      <use xlink:href="#DejaVuSans-6d" transform="translate(415.561523 0.015625)"/>
      <use xlink:href="#DejaVuSans-69" transform="translate(512.973633 0.015625)"/>
      <use xlink:href="#DejaVuSans-73" transform="translate(540.756836 0.015625)"/>
      <use xlink:href="#DejaVuSans-73" transform="translate(592.856445 0.015625)"/>
      <use xlink:href="#DejaVuSans-69" transform="translate(644.956055 0.015625)"/>
      <use xlink:href="#DejaVuSans-6f" transform="translate(672.739258 0.015625)"/>
      <use xlink:href="#DejaVuSans-6e" transform="translate(733.920898 0.015625)"/>
     </g>
    </g>
   </g>
   <g id="matplotlib.axis_6">
    <g id="ytick_9">
     <g id="line2d_23"/>
     <g id="text_16">
      <!-- All minus FTT-Tr -->
      <g transform="translate(7.2 641.75252) scale(0.14 -0.14)">
       <use xlink:href="#DejaVuSans-41"/>
       <use xlink:href="#DejaVuSans-6c" x="68.408203"/>
       <use xlink:href="#DejaVuSans-6c" x="96.191406"/>
       <use xlink:href="#DejaVuSans-20" x="123.974609"/>
       <use xlink:href="#DejaVuSans-6d" x="155.761719"/>
       <use xlink:href="#DejaVuSans-69" x="253.173828"/>
       <use xlink:href="#DejaVuSans-6e" x="280.957031"/>
       <use xlink:href="#DejaVuSans-75" x="344.335938"/>
       <use xlink:href="#DejaVuSans-73" x="407.714844"/>
       <use xlink:href="#DejaVuSans-20" x="459.814453"/>
       <use xlink:href="#DejaVuSans-46" x="491.601562"/>
       <use xlink:href="#DejaVuSans-54" x="547.371094"/>
       <use xlink:href="#DejaVuSans-54" x="606.705078"/>
       <use xlink:href="#DejaVuSans-2d" x="658.664062"/>
       <use xlink:href="#DejaVuSans-54" x="685.623047"/>
       <use xlink:href="#DejaVuSans-72" x="731.957031"/>
      </g>
     </g>
    </g>
    <g id="ytick_10">
     <g id="line2d_24"/>
     <g id="text_17">
      <!-- FTT-Fr -->
      <g transform="translate(74.19 570.81733) scale(0.14 -0.14)">
       <use xlink:href="#DejaVuSans-46"/>
       <use xlink:href="#DejaVuSans-54" x="55.769531"/>
       <use xlink:href="#DejaVuSans-54" x="115.103516"/>
       <use xlink:href="#DejaVuSans-2d" x="167.0625"/>
       <use xlink:href="#DejaVuSans-46" x="203.146484"/>
       <use xlink:href="#DejaVuSans-72" x="253.416016"/>
      </g>
     </g>
    </g>
    <g id="ytick_11">
     <g id="line2d_25"/>
     <g id="text_18">
      <!-- FTT-H -->
      <g transform="translate(76.454063 499.882141) scale(0.14 -0.14)">
       <use xlink:href="#DejaVuSans-46"/>
       <use xlink:href="#DejaVuSans-54" x="55.769531"/>
       <use xlink:href="#DejaVuSans-54" x="115.103516"/>
       <use xlink:href="#DejaVuSans-2d" x="167.0625"/>
       <use xlink:href="#DejaVuSans-48" x="203.146484"/>
      </g>
     </g>
    </g>
    <g id="ytick_12">
     <g id="line2d_26"/>
     <g id="text_19">
      <!-- FTT-P -->
      <g transform="translate(78.540938 428.946952) scale(0.14 -0.14)">
       <use xlink:href="#DejaVuSans-46"/>
       <use xlink:href="#DejaVuSans-54" x="55.769531"/>
       <use xlink:href="#DejaVuSans-54" x="115.103516"/>
       <use xlink:href="#DejaVuSans-2d" x="167.0625"/>
       <use xlink:href="#DejaVuSans-50" x="203.146484"/>
      </g>
     </g>
    </g>
   </g>
   <g id="line2d_27">
    <path d="M 211.946654 678.285375 
L 211.946654 381.776284 
" clip-path="url(#p5e6d0d0706)" style="fill: none; stroke: #000000; stroke-width: 0.8; stroke-linecap: square"/>
   </g>
   <g id="patch_19">
    <path d="M 118.92 678.285375 
L 376.458462 678.285375 
" style="fill: none; stroke: #000000; stroke-width: 0.8; stroke-linejoin: miter; stroke-linecap: square"/>
   </g>
   <g id="text_20">
    <!-- FTT:Tr -->
    <g transform="translate(223.640293 375.776284) scale(0.168 -0.168)">
     <use xlink:href="#DejaVuSans-46"/>
     <use xlink:href="#DejaVuSans-54" x="55.769531"/>
     <use xlink:href="#DejaVuSans-54" x="115.103516"/>
     <use xlink:href="#DejaVuSans-3a" x="165.1875"/>
     <use xlink:href="#DejaVuSans-54" x="198.878906"/>
     <use xlink:href="#DejaVuSans-72" x="245.212891"/>
    </g>
   </g>
  </g>
  <g id="axes_4">
   <g id="patch_20">
    <path d="M 530.981538 678.285375 
L 788.52 678.285375 
L 788.52 381.776284 
L 530.981538 381.776284 
z
" style="fill: #ffffff"/>
   </g>
   <g id="patch_21">
    <path d="M 624.008192 664.807689 
L 623.755716 664.807689 
L 623.755716 608.059538 
L 624.008192 608.059538 
z
" clip-path="url(#p2e568bbdd8)" style="fill: #2171b5"/>
   </g>
   <g id="patch_22">
    <path d="M 624.008192 593.8725 
L 623.728579 593.8725 
L 623.728579 537.124348 
L 624.008192 537.124348 
z
" clip-path="url(#p2e568bbdd8)" style="fill: #6caed6"/>
   </g>
   <g id="patch_23">
    <path d="M 624.008192 522.937311 
L 623.731508 522.937311 
L 623.731508 466.189159 
L 624.008192 466.189159 
z
" clip-path="url(#p2e568bbdd8)" style="fill: #6caed6"/>
   </g>
   <g id="patch_24">
    <path d="M 624.008192 452.002121 
L 624.030196 452.002121 
L 624.030196 395.25397 
L 624.008192 395.25397 
z
" clip-path="url(#p2e568bbdd8)" style="fill: #6caed6"/>
   </g>
   <g id="matplotlib.axis_7">
    <g id="xtick_13">
     <g id="line2d_28">
      <g>
       <use xlink:href="#mef5fc6d051" x="565.73098" y="678.285375" style="stroke: #000000; stroke-width: 0.8"/>
      </g>
     </g>
     <g id="text_21">
      <!-- −200 -->
      <g transform="translate(546.503949 695.923187) scale(0.14 -0.14)">
       <use xlink:href="#DejaVuSans-2212"/>
       <use xlink:href="#DejaVuSans-32" x="83.789062"/>
       <use xlink:href="#DejaVuSans-30" x="147.412109"/>
       <use xlink:href="#DejaVuSans-30" x="211.035156"/>
      </g>
     </g>
    </g>
    <g id="xtick_14">
     <g id="line2d_29">
      <g>
       <use xlink:href="#mef5fc6d051" x="624.008192" y="678.285375" style="stroke: #000000; stroke-width: 0.8"/>
      </g>
     </g>
     <g id="text_22">
      <!-- 0 -->
      <g transform="translate(619.554442 695.923187) scale(0.14 -0.14)">
       <use xlink:href="#DejaVuSans-30"/>
      </g>
     </g>
    </g>
    <g id="xtick_15">
     <g id="line2d_30">
      <g>
       <use xlink:href="#mef5fc6d051" x="682.285405" y="678.285375" style="stroke: #000000; stroke-width: 0.8"/>
      </g>
     </g>
     <g id="text_23">
      <!-- 200 -->
      <g transform="translate(668.924155 695.923187) scale(0.14 -0.14)">
       <use xlink:href="#DejaVuSans-32"/>
       <use xlink:href="#DejaVuSans-30" x="63.623047"/>
       <use xlink:href="#DejaVuSans-30" x="127.246094"/>
      </g>
     </g>
    </g>
    <g id="xtick_16">
     <g id="line2d_31">
      <g>
       <use xlink:href="#mef5fc6d051" x="740.562618" y="678.285375" style="stroke: #000000; stroke-width: 0.8"/>
      </g>
     </g>
     <g id="text_24">
      <!-- 400 -->
      <g transform="translate(727.201368 695.923187) scale(0.14 -0.14)">
       <use xlink:href="#DejaVuSans-34"/>
       <use xlink:href="#DejaVuSans-30" x="63.623047"/>
       <use xlink:href="#DejaVuSans-30" x="127.246094"/>
      </g>
     </g>
    </g>
    <g id="text_25">
     <!-- MtCO$_2$ emission -->
     <g transform="translate(603.890769 713.472562) scale(0.14 -0.14)">
      <use xlink:href="#DejaVuSans-4d" transform="translate(0 0.015625)"/>
      <use xlink:href="#DejaVuSans-74" transform="translate(86.279297 0.015625)"/>
      <use xlink:href="#DejaVuSans-43" transform="translate(125.488281 0.015625)"/>
      <use xlink:href="#DejaVuSans-4f" transform="translate(195.3125 0.015625)"/>
      <use xlink:href="#DejaVuSans-32" transform="translate(274.980469 -16.390625) scale(0.7)"/>
      <use xlink:href="#DejaVuSans-20" transform="translate(322.250977 0.015625)"/>
      <use xlink:href="#DejaVuSans-65" transform="translate(354.038086 0.015625)"/>
      <use xlink:href="#DejaVuSans-6d" transform="translate(415.561523 0.015625)"/>
      <use xlink:href="#DejaVuSans-69" transform="translate(512.973633 0.015625)"/>
      <use xlink:href="#DejaVuSans-73" transform="translate(540.756836 0.015625)"/>
      <use xlink:href="#DejaVuSans-73" transform="translate(592.856445 0.015625)"/>
      <use xlink:href="#DejaVuSans-69" transform="translate(644.956055 0.015625)"/>
      <use xlink:href="#DejaVuSans-6f" transform="translate(672.739258 0.015625)"/>
      <use xlink:href="#DejaVuSans-6e" transform="translate(733.920898 0.015625)"/>
     </g>
    </g>
   </g>
   <g id="matplotlib.axis_8">
    <g id="ytick_13">
     <g id="line2d_32"/>
     <g id="text_26">
      <!-- All minus FTT-Fr -->
      <g transform="translate(417.432788 641.75252) scale(0.14 -0.14)">
       <use xlink:href="#DejaVuSans-41"/>
       <use xlink:href="#DejaVuSans-6c" x="68.408203"/>
       <use xlink:href="#DejaVuSans-6c" x="96.191406"/>
       <use xlink:href="#DejaVuSans-20" x="123.974609"/>
       <use xlink:href="#DejaVuSans-6d" x="155.761719"/>
       <use xlink:href="#DejaVuSans-69" x="253.173828"/>
       <use xlink:href="#DejaVuSans-6e" x="280.957031"/>
       <use xlink:href="#DejaVuSans-75" x="344.335938"/>
       <use xlink:href="#DejaVuSans-73" x="407.714844"/>
       <use xlink:href="#DejaVuSans-20" x="459.814453"/>
       <use xlink:href="#DejaVuSans-46" x="491.601562"/>
       <use xlink:href="#DejaVuSans-54" x="547.371094"/>
       <use xlink:href="#DejaVuSans-54" x="606.705078"/>
       <use xlink:href="#DejaVuSans-2d" x="658.664062"/>
       <use xlink:href="#DejaVuSans-46" x="694.748047"/>
       <use xlink:href="#DejaVuSans-72" x="745.017578"/>
      </g>
     </g>
    </g>
    <g id="ytick_14">
     <g id="line2d_33"/>
     <g id="text_27">
      <!-- FTT-Tr -->
      <g transform="translate(488.080288 570.81733) scale(0.14 -0.14)">
       <use xlink:href="#DejaVuSans-46"/>
       <use xlink:href="#DejaVuSans-54" x="55.769531"/>
       <use xlink:href="#DejaVuSans-54" x="115.103516"/>
       <use xlink:href="#DejaVuSans-2d" x="167.0625"/>
       <use xlink:href="#DejaVuSans-54" x="194.021484"/>
       <use xlink:href="#DejaVuSans-72" x="240.355469"/>
      </g>
     </g>
    </g>
    <g id="ytick_15">
     <g id="line2d_34"/>
     <g id="text_28">
      <!-- FTT-H -->
      <g transform="translate(488.515601 499.882141) scale(0.14 -0.14)">
       <use xlink:href="#DejaVuSans-46"/>
       <use xlink:href="#DejaVuSans-54" x="55.769531"/>
       <use xlink:href="#DejaVuSans-54" x="115.103516"/>
       <use xlink:href="#DejaVuSans-2d" x="167.0625"/>
       <use xlink:href="#DejaVuSans-48" x="203.146484"/>
      </g>
     </g>
    </g>
    <g id="ytick_16">
     <g id="line2d_35"/>
     <g id="text_29">
      <!-- FTT-P -->
      <g transform="translate(490.602476 428.946952) scale(0.14 -0.14)">
       <use xlink:href="#DejaVuSans-46"/>
       <use xlink:href="#DejaVuSans-54" x="55.769531"/>
       <use xlink:href="#DejaVuSans-54" x="115.103516"/>
       <use xlink:href="#DejaVuSans-2d" x="167.0625"/>
       <use xlink:href="#DejaVuSans-50" x="203.146484"/>
      </g>
     </g>
    </g>
   </g>
   <g id="line2d_36">
    <path d="M 624.008192 678.285375 
L 624.008192 381.776284 
" clip-path="url(#p2e568bbdd8)" style="fill: none; stroke: #000000; stroke-width: 0.8; stroke-linecap: square"/>
   </g>
   <g id="patch_25">
    <path d="M 530.981538 678.285375 
L 788.52 678.285375 
" style="fill: none; stroke: #000000; stroke-width: 0.8; stroke-linejoin: miter; stroke-linecap: square"/>
   </g>
   <g id="text_30">
    <!-- FTT:Fr -->
    <g transform="translate(635.371082 375.776284) scale(0.168 -0.168)">
     <use xlink:href="#DejaVuSans-46"/>
     <use xlink:href="#DejaVuSans-54" x="55.769531"/>
     <use xlink:href="#DejaVuSans-54" x="115.103516"/>
     <use xlink:href="#DejaVuSans-3a" x="165.1875"/>
     <use xlink:href="#DejaVuSans-46" x="198.878906"/>
     <use xlink:href="#DejaVuSans-72" x="249.148438"/>
    </g>
   </g>
  </g>
 </g>
 <defs>
  <clipPath id="pd998182f6b">
   <rect x="118.92" y="25.965375" width="257.538462" height="296.509091"/>
  </clipPath>
  <clipPath id="pbab41b9ef2">
   <rect x="530.981538" y="25.965375" width="257.538462" height="296.509091"/>
  </clipPath>
  <clipPath id="p5e6d0d0706">
   <rect x="118.92" y="381.776284" width="257.538462" height="296.509091"/>
  </clipPath>
  <clipPath id="p2e568bbdd8">
   <rect x="530.981538" y="381.776284" width="257.538462" height="296.509091"/>
  </clipPath>
 </defs>
</svg>
